<svg height="356.129" viewBox="0 0 304.793 356.129" width="304.793" xmlns="http://www.w3.org/2000/svg"><path d="m267.834 171.3c1.97 1.258 2.791-3.742.537-12.341-.028-6.421-2.434-13.938-6.439-17.707 4.512 2.05.746 1.493 9.122 11.268 3.543 3.859 1.088 12.424 6.975 16.634 2.589 10.271 2.346 12.046 2.146 13.95-.112 4.969-.206 9.951-5.902 10.732-1.968-1.968-4.65-3.935-8.049-5.903-.803-4.874-.446-10.329 1.61-16.633z" fill="#ffb801"/><path d="m220.348 224.939-9.658-15.56 10.195-10.731 13.95-2.683 15.561 2.146c.62 1.24 19.6-2.745 23.609-3.219 3.626-.429 16.663-5.143 18.243-7.512 6.48-5.624 6.506-12.861 7.512-19.853 1.882 5.042 2.217 7.805 1.073 19.853-8.049 14.487-14.718 13.299-26.828 18.78 8.406.658 16.812-3.528 25.218-6.976-4.632 3.926 2.321 5.279-15.024 15.561-13.787 8.064-20.164 4.425-27.364 5.902-17.54-2.257-17.905-6.66-25.219-10.195l-5.902 8.049 8.048 9.658z" fill="#ff7401"/><path d="m278.297 222.793c-5.251 4.536-8.162 6.732-9.121 6.976-7.005 8.228-15.189 9.387-23.609 9.121-11.251-7.512-9.258-15.024-12.878-22.536 5.042-4.828-2.559-4.388 17.707-15.56 2.513-3.107 0 0 9.121-8.585 4.79-2.45 2.835-23.297 3.756-32.194 1.632 7.702 7.065 18.109 4.293 27.902 2.027 4.242-2.077 16.441-5.902 14.487 4.125 1.825 6.784-4.509 12.341-19.853l1.609-17.17c3.577-13.884 7.154-17.88 10.732-21.999l11.804-6.439c-1.606 4.476-10.771 11.724-12.341 21.463-2.332 14.207-4.551 28.114-2.683 31.12 7.377-22.691 9.758-31.475 16.634-33.803-5.884 8.669-8.162 29.004-11.268 51.51-3.783 10.801-7.064 14.28-10.195 15.56z" fill="#d40000"/><path d="m236.418 269.246c5.023 1.181 12.365.788 12.365.788s-.331-2.763 13.911-6.692c17.689-4.88 17.718-24.714 16.616-25.588-3.992 6.011-2.222 8.195-12.752 10.629l-5.023 2.756c3.818-1.825 6.535-4.004 7.342-7.873 11.424-5.346 18.819-13.031 17.775-26.375-6.44 9.801-7.084 13.074-13.525 14.565-.482 3.441-20.641 13.349-22.412 10.629-1.433-2.201-22.799 3.936-26.276 4.33-3.478.393-8.115 9.447-8.115 9.447l2.705 8.267z" fill="#a00"/><path d="m234.903 283.736c6.976 1.61 17.17 1.073 17.17 1.073s-.459-3.766 19.317-9.121c24.562-6.652 24.602-33.687 23.072-34.877-5.544 8.193-3.085 11.17-17.707 14.487l-6.975 3.756c5.302-2.487 9.075-5.456 10.195-10.731 15.864-7.286 26.132-17.762 24.682-35.95-8.943 13.359-9.837 17.82-18.78 19.853-.67 4.69-28.661 18.195-31.121 14.487-1.989-2.999-31.657 5.366-36.486 5.902-4.829.537-11.268 12.878-11.268 12.878l3.756 11.268z" fill="#d50000"/><path d="m243.42 263.036c-1.258 1.97 6.425.108 15.024-2.147 6.421-.027 9.109-5.653 12.878-9.658-2.05 4.513.654 6.648-9.122 15.024-3.767 3.658-7.303 7.489-16.633 6.975l-13.951 2.147-11.268-6.976 6.439-6.975z" fill="#ffb801"/><path d="m221.421 152.503 5.903-16.097 13.414-4.829 8.048 5.366 12.878-5.366c4.714 5.1 12.126-9.016 15.56-12.877l5.902-13.414c-.592 6.759 1.231 15.129-3.219 19.316-4.316 8.857-7.28 12.308-10.195 15.56 6.618-2.217 13.235-6.076 19.853-9.658-4.829 5.331-9.658 11.043-14.487 15.024-8.862 9.869-14.849 8.243-20.926 6.975l-18.78 3.756-12.878-1.073" fill="#ff0101"/><path d="m215.798 132.645-1.073-16.097 9.122-8.048 7.512-8.585c2.775-1.981 4.263 1.189 9.658-11.268.769-10.625.797-20.26-2.683-25.219-1.043-23.728 3.46-23.462 3.756-28.438l4.829-4.829c-.96 8.111-6.482 18.046-1.073 23.609 3.942 15.396 2.763 20.549 1.073 24.682-2.351 14.937-.806 16.236-.536 21.999 3.04 1.482 6.081-8.211 9.121-20.926 3.487-9.091-.202-15.791-.536-23.609 1.276 11.359 6.537 8.104 3.756 34.34 2.443 9.122.776 18.244-5.366 27.365-15.569 8.784-8.252 9.244-9.658 12.878l-20.39 8.048z" fill="#d40000"/><path d="m262.104 156.841c-3.235 3.39-5.028 5.032-5.619 5.214-4.315 6.15-9.356 7.017-14.543 6.818-6.931-5.615-5.703-11.23-7.933-16.845 3.106-3.608-1.576-3.28 10.907-11.63 1.549-2.323 0 0 5.619-6.417 2.951-1.832 1.746-17.413 2.314-24.063 1.005 5.756 4.352 13.535 2.644 20.854 1.249 3.171-1.279 12.29-3.636 10.829 2.542 1.364 4.18-3.37 7.602-14.839l.992-12.834c2.203-10.377 4.407-13.364 6.61-16.443l7.272-4.813c-.989 3.345-6.635 8.763-7.602 16.042-1.437 10.62-2.804 21.014-1.653 23.262 4.544-16.961 6.011-23.527 10.247-25.267-3.625 6.48-5.028 21.679-6.941 38.501-2.33 8.074-4.352 10.674-6.28 11.631z" fill="#d33833"/><path d="m233.766 122.992c1.97 1.258 2.791-3.742.536-12.341-.027-6.42-2.434-13.938-6.439-17.706 4.513 2.049.747 1.492 9.122 11.268 3.544 3.858 1.089 12.424 6.975 16.633 2.589 10.271 2.346 12.046 2.147 13.951-.112 4.968-.206 9.951-5.903 10.731-1.967-1.967-4.65-3.935-8.048-5.902-.804-4.875-.446-10.33 1.61-16.634z" fill="#ffb801"/><path d="m66.002 139.897c5.251 4.536 8.163 6.732 9.122 6.976 7.005 8.228 15.188 9.388 23.609 9.121 11.251-7.512 9.257-15.023 12.877-22.535-5.041-4.829 2.559-4.389-17.706-15.561-2.514-3.107 0 0-9.122-8.585-4.79-2.45-2.834-23.297-3.756-32.194-1.632 7.702-7.064 18.109-4.292 27.902-2.027 4.242 2.076 16.441 5.902 14.487-4.126 1.825-6.785-4.509-12.341-19.853l-1.61-17.17c-3.577-13.883-7.154-17.879-10.731-21.999l-11.804-6.439c1.606 4.476 10.77 11.724 12.341 21.463 2.332 14.207 4.551 28.114 2.682 31.12-7.376-22.691-9.757-31.475-16.633-33.803 5.884 8.669 8.162 29.004 11.268 51.51 3.782 10.801 7.063 14.28 10.194 15.56z" fill="#d40000"/><path d="m81.145 230.234c7.769-4.277 8.907-9.88 9.658-15.56-1.824-3.84-.415-8.218-10.195-10.731-4.65-3.186-9.3-2.051-13.951-2.683l-15.56 2.146c-.62 1.24-19.6-2.746-23.609-3.219-3.626-.429-16.663-5.143-18.243-7.512-6.48-5.624-6.506-12.861-7.512-19.853-1.882 5.042-2.217 7.805-1.073 19.853 8.048 14.487 14.718 13.298 26.828 18.78-8.406.657-16.812-3.528-25.218-6.976 4.632 3.926-2.321 5.279 15.023 15.561 13.788 8.064 20.165 4.425 27.365 5.902 17.54-2.257 17.904-6.66 25.219-10.195 5.896 1.897 7.144 4.724 5.902 8.048l-8.049 9.659z" fill="#ff7401"/><path d="m79.836 284.723c-6.975-3.688-17.17-.271-17.17 1.074-6.265-.482-11.485-4.686-19.316-9.122-22.14-12.544-24.602-33.687-23.072-34.877 5.543 8.193 3.085 11.17 17.706 14.488l6.976 3.755c-5.302-2.486-9.075-5.456-10.195-10.731-15.864-7.286-26.132-17.762-24.682-35.95 8.943 13.359 9.837 17.82 18.78 19.853.67 4.69 28.661 18.196 31.12 14.488 1.99-3 31.658 5.365 36.487 5.902 4.829.536 11.268 12.877 11.268 12.877l-3.756 11.268c-8.049 9.007-16.097 7.68-24.146 6.975z" fill="#d50000"/><path d="m69.577 216.354 1.073-16.096-9.122-8.049-7.511-8.585c-2.776-1.98-4.264 1.19-9.659-11.268-.769-10.624-.796-20.259 2.683-25.218 1.044-23.729-3.46-23.463-3.756-28.438l-4.829-4.829c.96 8.11 6.482 18.045 1.073 23.608-3.942 15.396-2.762 20.55-1.073 24.682 2.352 14.938.806 16.236.537 22-3.041 1.481-6.081-8.212-9.122-20.926-3.487-9.092.202-15.792.537-23.609-1.276 11.359-6.538 8.104-3.756 34.34-2.443 9.121-.776 18.243 5.365 27.365 15.57 8.783 8.252 9.244 9.659 12.877l20.389 8.049z" fill="#d33833"/><path d="m132.521 85.85c5.25 4.536 8.162 6.732 9.121 6.976 7.005 8.228 15.188 9.388 23.609 9.121 11.251-7.512 9.258-15.024 12.877-22.535-5.041-4.829 2.559-4.389-17.706-15.561-2.514-3.107 0 0-9.122-8.585-4.789-2.45-2.834-23.297-3.756-32.194-1.632 7.702-7.064 18.109-4.292 27.902-2.027 4.242 2.076 16.441 5.902 14.487-4.126 1.825-6.785-4.509-12.341-19.853l-1.61-17.17c-3.577-13.884-7.154-17.88-10.731-21.999l-11.804-6.439c1.606 4.476 10.771 11.724 12.341 21.463 2.332 14.207 4.551 28.114 2.682 31.12-7.376-22.691-9.757-31.475-16.633-33.803 5.884 8.669 8.162 29.004 11.268 51.51 3.782 10.801 7.064 14.28 10.195 15.56z" fill="#d40000"/><path d="m166.729 75.09c-1.61-6.976-1.073-17.17-1.073-17.17s3.766.459 9.122-19.317c6.651-24.562 33.686-24.602 34.876-23.072-8.192 5.544-11.17 3.085-14.487 17.707l-3.756 6.975c2.487-5.302 5.457-9.075 10.731-10.195 7.286-15.864 17.762-26.131 35.95-24.682-13.358 8.943-17.82 9.837-19.853 18.78-4.69.67-18.195 28.661-14.487 31.121 3 1.989-5.366 31.657-5.902 36.486-.537 4.829-12.878 11.268-12.878 11.268l-11.268-3.756z" fill="#d50000"/><path d="m191.968 52.702c-1.97 1.258-2.791-3.742-.537-12.341.028-6.42 2.434-13.937 6.439-17.706-4.513 2.049-.746 1.492-9.122 11.268-3.544 3.858-1.088 12.424-6.975 16.633-2.589 10.271-2.346 12.046-2.146 13.951.112 4.969.206 9.951 5.902 10.731 1.967-1.967 4.65-3.935 8.048-5.902.804-4.875.447-10.329-1.609-16.634z" fill="#ffb801"/><path d="m102.464 162.625 9.658-15.56-10.194-10.731-13.951-2.683-15.561 2.146c-.62 1.24-19.6-2.746-23.608-3.219-3.627-.429-16.664-5.143-18.244-7.512-6.48-5.624-6.505-12.861-7.511-19.853-1.883 5.042-2.218 7.805-1.074 19.853 8.049 14.487 14.719 13.298 26.829 18.78-8.407.657-16.813-3.528-25.219-6.976 4.632 3.926-2.321 5.279 15.024 15.561 13.787 8.064 20.164 4.425 27.365 5.902 17.539-2.257 17.904-6.66 25.218-10.195l5.902 8.049-8.048 9.658z" fill="#ff7401"/><path d="m19.748 208.607c3.235 3.39 5.028 5.031 5.619 5.214 4.315 6.15 9.356 7.017 14.543 6.818 6.931-5.615 5.703-11.23 7.933-16.845-3.106-3.609 1.576-3.28-10.908-11.63-1.548-2.323 0 0-5.618-6.417-2.951-1.832-1.746-17.414-2.314-24.064-1.005 5.757-4.352 13.536-2.644 20.855-1.249 3.171 1.279 12.289 3.635 10.829-2.541 1.364-4.179-3.37-7.602-14.839l-.991-12.834c-2.204-10.377-4.407-13.364-6.611-16.443l-7.271-4.813c.989 3.345 6.635 8.763 7.602 16.042 1.436 10.62 2.803 21.014 1.653 23.261-4.544-16.96-6.011-23.526-10.247-25.266 3.625 6.48 5.028 21.679 6.941 38.501 2.33 8.073 4.352 10.674 6.28 11.631z" fill="#d40000"/><path d="m57.206 190.797c-1.258 1.97 3.742 2.791 12.341.536 6.42-.027 13.938-2.433 17.706-6.438-2.049 4.512-1.492.746-11.267 9.121-3.859 3.544-12.425 1.089-16.634 6.976-10.271 2.589-12.046 2.346-13.951 2.146-4.968-.112-9.951-.206-10.731-5.902 1.967-1.968 3.935-4.651 5.902-8.049 4.875-.803 10.33-.446 16.634 1.61z" fill="#ffb801"/><path d="m99.696 88.953c3.235 3.39 5.028 5.032 5.619 5.214 4.315 6.15 9.356 7.017 14.543 6.818 6.931-5.615 5.703-11.23 7.933-16.845-3.106-3.608 1.576-3.28-10.907-11.63-1.549-2.322 0 0-5.619-6.417-2.951-1.832-1.746-17.413-2.314-24.063-1.005 5.756-4.352 13.535-2.644 20.854-1.249 3.171 1.279 12.29 3.636 10.829-2.542 1.364-4.18-3.37-7.602-14.839l-.992-12.834c-2.204-10.377-4.407-13.364-6.611-16.443l-7.271-4.813c.989 3.346 6.635 8.763 7.602 16.042 1.437 10.62 2.804 21.014 1.653 23.262-4.544-16.961-6.011-23.527-10.247-25.267 3.625 6.48 5.028 21.679 6.941 38.502 2.33 8.073 4.352 10.673 6.28 11.63z" fill="#d33833"/><path d="m87.062 85.65c1.97 1.258 2.791-3.742.537-12.341-.028-6.42-2.434-13.938-6.439-17.707 4.513 2.05.746 1.493 9.122 11.268 3.544 3.859 1.088 12.424 6.975 16.634 2.589 10.271 2.346 12.046 2.146 13.95-.111 4.969-.205 9.951-5.902 10.732-1.967-1.968-4.65-3.935-8.048-5.903-.804-4.874-.446-10.329 1.609-16.633z" fill="#ffb801"/><path d="m76.817 264.914c1.258 1.97-6.425.108-15.024-2.147-6.42-.027-9.108-5.653-12.877-9.658 2.049 4.513-.654 6.648 9.121 15.024 3.768 3.658 7.304 7.489 16.634 6.975l13.951 2.146 11.268-6.975-6.439-6.975z" fill="#ffb801"/><path d="m266.151 194.537c0 61.786-48.969 111.874-109.375 111.874s-109.374-50.088-109.374-111.874c0-61.788 48.968-111.876 109.374-111.876s109.375 50.088 109.375 111.876" fill="#d33833"/><path d="m51.859 222.244s-7.918-116.666 99.582-120l-7.499-12.5-58.333 19.584-16.667 19.166-14.583 27.918-8.334 32.5 2.5 21.666" fill="#ef3d3a"/><path d="m81.863 118.218c-19.19 19.635-31.064 46.745-31.064 76.736 0 29.985 11.874 57.099 31.064 76.73 19.2 19.632 45.659 31.745 74.911 31.745 29.253 0 55.714-12.113 74.912-31.745 19.188-19.631 31.066-46.745 31.066-76.73 0-29.991-11.878-57.101-31.066-76.736-19.198-19.627-45.659-31.741-74.912-31.744-29.252.003-55.711 12.117-74.911 31.744zm-4.857 158.215c-20.395-20.857-33.003-49.682-33.003-81.479 0-31.801 12.608-60.623 33.003-81.482 20.39-20.863 48.614-33.794 79.768-33.79 31.154-.004 59.382 12.927 79.768 33.79 20.396 20.859 33.006 49.684 33.004 81.482.002 31.797-12.608 60.622-33.004 81.479-20.386 20.862-48.614 33.791-79.768 33.791-31.154 0-59.378-12.929-79.768-33.791z" fill="#231f20"/><path d="m211.013 40.711.177 12.728-.972 6.275 7.954 9.193 3.448 2.475v-5.48l-2.21-12.994-3.005-7.247z" fill="#ffa59b"/><path d="m208.45 58.3c.363-1.376.697-2.294.795-4.861.228-.514.348-5.521.354-8.927.035-1.315-.037-2.854-.442-7.248.727-.132 1.134-.745 2.74.442l3.447 4.154c2.319 3.336 4.269 6.62 4.95 9.723.533 1.381 1.155 3.564 2.386 11.225.841 8.296.685 7.959.884 10.695l-.707 2.563-2.121-2.033-.354-4.419c-.147-4.243.109-4.034-.884-10.342-.933-3.735-.805-4.793-2.121-8.043l-1.768-3.447c-1.432-3.705-3.311-5.483-4.066-5.922.242 2.96.524 6.113.531 7.425-.059 4.894-.295 6.395-.354 8.485l-.353 3.535z" fill="#231f20"/><path d="m203.401 195.169-16.668 2.5-22.5 2.5-14.584.416-14.166-.416-10.834-3.334-9.583-10.416-7.5-21.25-1.667-4.584-10-3.332-5.833-9.584-4.167-13.75 4.584-12.084 10.833-3.75 8.75 4.168 4.167 9.166 5-.834 1.666-2.082-1.666-9.584-.417-12.084 2.5-16.666-.098-9.52 7.598-12.146 13.333-9.584 23.334-10 25.833 3.75 22.5 16.25 10.417 16.666 6.667 12.084 1.666 30-5 25.834-9.166 22.916-8.75 12.084" fill="#ffa59b"/><path d="m203.401 195.169-16.668 2.5-22.5 2.5-14.584.416-14.166-.416-10.834-3.334-9.583-10.416-7.5-21.25-1.667-4.584-10-3.332-5.833-9.584-4.167-13.75 4.584-12.084 10.833-3.75 8.75 4.168 4.167 9.166 5-.834 1.666-2.082-1.666-9.584-.417-12.084 2.5-16.666-.098-9.52 7.598-12.146 13.333-9.584 23.334-10 25.833 3.75 22.5 16.25 10.417 16.666 6.667 12.084 1.666 30-5 25.834-9.166 22.916-8.75 12.084" fill="none" stroke="#000" stroke-width="1.25"/><path d="m189.234 267.251-59.585 2.5v10l5 35-2.5 2.918-41.666-14.168-2.917-5-4.167-47.082-9.582-28.334-2.084-6.666 33.333-22.916 10.417-4.168 9.166 11.25 7.917 7.084 9.167 2.916 4.166 1.25 5 21.667 3.75 4.583 9.584-3.333-6.667 12.917 36.25 17.082z" fill="#335061"/><path d="m90.483 121.835 10.833-3.75 8.75 4.168 4.167 9.166 5-.834 1.25-5-2.5-9.582 2.5-22.918-2.084-12.5 7.5-8.75 16.25-12.916-4.583-6.25-22.917 11.25-9.583 7.5-5.417 11.666-8.333 11.25-2.5 13.334z" fill="#6d6b6d"/><path d="m107.566 82.669s6.25-15.416 31.25-22.916 1.25-5.418 1.25-5.418l-27.083 10.418-10.417 10.416-4.583 8.334z" fill="#dcd9d8"/><path d="m95.066 118.919s-8.75-29.168 24.583-33.334l-1.25-5-22.916 5.418-6.667 21.666 1.667 14.166z" fill="#dcd9d8"/><path d="m108.399 157.669 5.456-5.286s2.462.286 2.878 3.202c.416 2.918 1.666 29.168 19.583 43.335 1.634 1.293-13.333-2.085-13.333-2.085l-13.334-20.832" fill="#f2c5c1"/><path d="m185.069 149.753s.971-12.63 4.372-11.659 3.401 4.373 3.401 4.373-8.26 5.343-7.773 7.286" fill="#f2c5c1"/><path d="m112.566 131.003s-15.834-9.584-17.5-.416c-1.667 9.166-5.418 15.833 2.5 25.416l-5.417-1.666-5-12.917-1.666-12.5 9.583-10.001 10.833.834 6.25 5z" fill="#f2c5c1"/><path d="m120.066 104.753s7.083-36.667 42.917-43.75c29.502-5.832 44.999 1.25 50.833 7.916 0 0-26.25-31.249-51.25-21.666s-43.333 27.083-42.917 38.332c.71 19.16.417 19.168.417 19.168" fill="#f2c5c1"/><path d="m124.649 200.585-39.166 17.5s16.25 64.584 7.916 84.584l-5.833-2.082-.417-24.584-10.832-46.666-4.584-12.918 40.833-27.499z" fill="#49728b"/><path d="m128.677 236.307 5.556 6.78v24.999h-6.667s-.833-17.499-.833-19.583.833-9.584.833-9.584" fill="#49728b"/><path d="m128.816 271.837-18.75.832 5.417 3.75 13.333 2.084" fill="#49728b"/><path d="m192.984 267.669 15.416-.416 3.75 38.333-15.834 2.083z" fill="#335061"/><path d="m197.15 267.669 23.334-1.25s9.582-24.166 9.582-25.416 8.334-35 8.334-35l-18.75-19.583-3.75-3.333-10 10v38.75z" fill="#335061"/><path d="m207.566 264.753-14.582 2.916 2.082 11.668c5.416 2.5 14.584-4.168 14.584-4.168" fill="#49728b"/><path d="m207.984 191.836 29.166 21.667.834-10-22.084-20.417z" fill="#49728b"/><path d="m143.276 349.756-8.627-35.005-4.29-25.828-.71-19.172 39.044-2.078 24.291-.004-2.209 43.754 3.75 33.75-.416 6.25-31.666 2.5z" fill="#fff"/><path d="m187.566 267.253s-2.082 43.334 4.168 74.166c0 0-12.5 7.918-30.835 10l35.001-1.25 4.166-2.5-5-68.332-1.25-14.586" fill="#dcd9d8"/><path d="m212.86 302.257 16.25-4.584 30.832-1.666 4.584-14.167-8.334-24.583-9.582-1.25-13.334 4.166-12.792 6.246-6.792-1.246-5.292 2.08" fill="#fff"/><path d="m212.566 293.919s10.832-4.999 12.5-4.582l-4.582-22.918 5.416-2.082s3.75 21.666 3.75 24.166c0 0 23.332 1.25 25.416 1.25 0 0 5-9.584 3.75-19.584l4.584 13.334.416 7.5-6.666 10-7.5 1.666-12.5-.416-4.166-5.416-14.584 2.082-4.584 1.668" fill="#dcd9d8"/><path d="m196.192 264.34-9.166-23.333-9.584-13.75s2.083-5.834 5-5.834h9.584l9.166 3.334-.832 15.416z" fill="#fff"/><path d="m197.984 256.419s-11.668-22.499-11.668-25.832c0 0 2.082-5 5-3.75s9.168 4.582 9.168 4.582v-7.916l-14.168-2.918-9.582 1.25 16.25 38.334 3.332.417" fill="#dcd9d8"/><path d="m147.026 201.424-11.543-1.255-10.834-3.334v3.75l5.294 5.838 16.666 7.5" fill="#fff"/><path d="m128.401 202.673s12.917 5.417 17.084 4.167l.414 4.995-11.664-2.495-7.084-5z" fill="#dcd9d8"/><path d="m212.815 222.842c-7.07-.208-13.458-1.048-19.05-2.625.38-2.293-.331-4.543.24-6.194 1.559-1.123 4.171-1.105 6.527-1.369-2.037-1.001-4.9-1.397-7.251-.819-.055-1.591-.769-2.577-1.201-3.822 3.975-1.419 13.359-10.72 18.637-7.64 2.515 1.465 3.584 9.832 3.779 13.901.163 3.375-.306 6.78-1.681 8.568" fill="#d33833"/><path d="m212.815 222.842c-7.07-.208-13.458-1.048-19.05-2.625.38-2.293-.331-4.543.24-6.194 1.559-1.123 4.171-1.105 6.527-1.369-2.037-1.001-4.9-1.397-7.251-.819-.055-1.591-.769-2.577-1.201-3.822 3.975-1.419 13.359-10.72 18.637-7.64 2.515 1.465 3.584 9.832 3.779 13.901.163 3.375-.306 6.78-1.681 8.568z" fill="none" stroke="#d33833" stroke-width="2.5"/><path d="m179.006 211.284c-.019.535-.041 1.074-.062 1.614-2.208 1.45-5.772 1.432-8.194 2.651 3.571.156 6.382 1.016 8.815 2.229-.054 1.347-.105 2.693-.158 4.041-4.046 2.77-7.742 6.895-12.506 9.493-2.253 1.228-10.158 4.389-12.554 3.831-1.356-.315-1.479-1.998-2.02-3.584-1.155-3.396-3.814-8.802-4.046-13.915-.295-6.457-.947-17.28 6.012-15.95 5.614 1.071 12.144 3.658 16.491 6.033 2.656 1.452 4.192 3.247 8.222 3.557" fill="#d33833"/><path d="m179.006 211.284c-.019.535-.041 1.074-.062 1.614-2.208 1.45-5.772 1.432-8.194 2.651 3.571.156 6.382 1.016 8.815 2.229-.054 1.347-.105 2.693-.158 4.041-4.046 2.77-7.742 6.895-12.506 9.493-2.253 1.228-10.158 4.389-12.554 3.831-1.356-.315-1.479-1.998-2.02-3.584-1.155-3.396-3.814-8.802-4.046-13.915-.295-6.457-.947-17.28 6.012-15.95 5.614 1.071 12.144 3.658 16.491 6.033 2.656 1.452 4.192 3.247 8.222 3.557z" fill="none" stroke="#d33833" stroke-width="2.5"/><path d="m183.025 218.989c-.618-3.518-1.331-4.521-1.055-7.59 9.381-6.255 11.142 10.744 1.055 7.59" fill="#d33833"/><path d="m183.025 218.989c-.618-3.518-1.331-4.521-1.055-7.59 9.381-6.255 11.142 10.744 1.055 7.59z" fill="none" stroke="#d33833" stroke-width="2.5"/><path d="m196.608 221.84s-2.917-4.167-.833-5.417c2.083-1.25 4.167.001 5.417-2.083 1.25-2.083 0-3.333.416-5.833.417-2.5 2.502-2.918 4.584-3.334 2.083-.416 7.918-1.25 8.75.834l-2.5-7.5-5-1.667-15.834 9.167-.833 4.583v9.167" fill="#ef3d3a"/><path d="m152.859 235.59c-.501-6.502-1.03-12.996-1.62-19.492-.882-9.7 2.33-8.008 10.738-8.008 1.285 0 7.908 1.532 8.382 2.5 2.272 4.642-3.8 3.61 2.617 7.11 5.418 2.954 14.988-1.794 12.799-8.36-1.225-1.46-6.383-.455-8.231-1.414-3.255-1.687-6.51-3.375-9.766-5.062-4.141-2.149-13.713-5.281-18.129-2.279-11.188 7.609.706 26.62 4.698 34.558" fill="#ef3d3a"/><path d="m217.125 146.403c-8.148 5.233-17.233 10.925-30.583 9.605-2.852-2.48-3.94-7.999-1.168-11.644 1.442 2.48.536 7.041 4.556 7.727 7.575 1.297 16.391-4.633 21.84-6.706 3.378-5.696-.291-7.791-3.335-11.457-6.232-7.512-14.59-16.822-14.287-28.067 2.519-1.826 2.737 2.788 3.098 3.628 3.254 7.615 11.442 17.354 17.419 23.871 1.467 1.605 3.883 3.145 4.152 4.206.775 3.087-2.016 6.784-1.692 8.837" fill="#231f20"/><path d="m109.714 140.893c-2.554-1.458-3.161-7.878-6.159-8.06-4.285-.26-3.504 8.328-3.487 13.351-2.949-2.677-3.468-10.921-1.301-15.155-2.469-1.213-3.572 1.338-4.941 2.236 1.76-12.787 18.706-5.931 15.888 7.628" fill="#231f20"/><path d="m216.532 231.346c-5.76 9.865-11.271 19.998-18.105 28.7 2.865-8.424 4.092-22.524 4.524-33.272 5.994-2.805 11.126.631 13.581 4.572" fill="#81b0c4"/><path d="m247.527 266.803c-6.448 1.291-10.98 7.558-17.271 7.156 3.458-4.874 9.516-6.929 17.271-7.156" fill="#231f20"/><path d="m250.372 276.895c-5.256.555-11.43 1.406-16.761.968 2.524-3.855 12.248-2.525 16.761-.968" fill="#231f20"/><path d="m252.193 285.596c-5.907.128-13.25.011-18.864-.461 3.321-3.567 15.033-1.323 18.864.461" fill="#231f20"/><path d="m205.417 309.408c.848 7.419 3.789 14.936 3.42 23.061-3.266 1.101-5.142 2.065-9.519 2.059-.308-6.905-1.232-17.462-.956-24.044 2.153.143 5.326-1.538 7.055-1.076" fill="#dcd9d8"/><path d="m195.894 200.068c-2.967 1.936-5.493 4.353-8.342 6.421-6.317.312-9.765-.438-14.406-4.065.076-.291.543-.161.56-.519 6.763 3.014 15.359-1.227 22.188-1.837" fill="#ffb5ac"/><path d="m160.393 246.165c1.858-8.051 9.138-12.221 15.749-16.655 6.824 8.661 10.974 19.798 15.544 30.545-10.797-3.255-21.83-8.536-31.293-13.89" fill="#81b0c4"/><path d="m198.362 310.484c-.276 6.582.648 17.139.957 24.044 4.376.006 6.252-.958 9.518-2.059.369-8.125-2.572-15.642-3.42-23.061-1.728-.462-4.902 1.218-7.055 1.076zm-68.142-37.436c2.885 26.529 7.065 48.83 14.731 72.321 17.014 5.166 37.525 5.616 52.564.955-2.761-13.259-1.555-29.401-3.169-43.55-1.216-10.635-.596-21.335-2.264-32.185-18.222-3.791-43.979-.886-61.862 2.459zm66.171-2.293c-.154 11.394.51 22.633 1.38 34.041 4.375-.657 7.344-1.096 11.409-1.987-1.32-10.982-1.158-23.34-3.846-33.055-3.108.03-5.844-.036-8.943 1.001zm22.194-1.836c-2.076-.476-4.494-.018-6.478.02.933 9.288 3.195 19.536 3.992 29.285 3.121.097 4.788-1.375 7.356-1.87.137-8.557-.748-20.347-4.87-27.435zm33.605 30.704c6.506-1.58 10.597-9.549 8.777-17.733-1.221-5.5-3.396-15.856-5.723-19.375-1.72-2.602-6.384-6.01-10.108-3.625-6.057 3.879-16.729 5.005-21.146 9.7 2.215 7.375 2.902 17.505 3.816 26.85 7.568.472 16.879-2.082 23.173.628-4.394 1.423-10.095 1.435-13.892 3.509 3.103 1.498 10.367 1.195 15.103.046zm-60.504-39.568c-4.57-10.747-8.72-21.884-15.544-30.545-6.611 4.434-13.891 8.604-15.749 16.655 9.463 5.354 20.496 10.635 31.293 13.89zm11.265-33.281c-.432 10.749-1.659 24.848-4.524 33.272 6.834-8.702 12.345-18.834 18.105-28.7-2.455-3.941-7.587-7.377-13.581-4.572zm-12.77-4.538c-2.589-.278-4.786 2.977-8.152 1.569-.772.853-1.473 1.776-2.259 2.609 7.435 8.96 10.814 21.673 16.556 32.202 3.081-10.115 2.726-21.196 3.405-32.236-4.234.269-6.582-3.829-9.55-4.144zm-8.211-10.837c-.276 3.069.437 4.072 1.055 7.59 10.087 3.154 8.326-13.845-1.055-7.59zm-11.186-3.672c-4.347-2.375-10.877-4.962-16.491-6.033-6.959-1.331-6.307 9.493-6.012 15.95.232 5.113 2.891 10.519 4.046 13.915.542 1.586.664 3.269 2.02 3.584 2.396.558 10.301-2.603 12.554-3.831 4.764-2.598 8.46-6.723 12.506-9.493.053-1.348.104-2.694.158-4.041-2.433-1.213-5.244-2.073-8.815-2.229 2.422-1.219 5.986-1.201 8.194-2.651.021-.54.043-1.079.062-1.614-4.03-.31-5.566-2.105-8.222-3.557zm-41.517-7.542c-3.608 3.663 10.118 8.655 14.488 8.924-.025-2.317 1.321-4.502 1.05-6.165-5.191-.911-12.012-.31-15.538-2.759zm44.439 1.72c-.017.358-.484.228-.56.519 4.641 3.627 8.089 4.377 14.406 4.065 2.849-2.067 5.375-4.485 8.342-6.421-6.829.61-15.425 4.851-22.188 1.837zm40.79 12.369c-.195-4.069-1.264-12.436-3.779-13.901-5.278-3.081-14.662 6.221-18.637 7.64.432 1.245 1.146 2.231 1.201 3.822 2.351-.578 5.214-.182 7.251.819-2.356.264-4.968.246-6.527 1.369-.571 1.651.14 3.901-.24 6.194 5.592 1.577 11.98 2.417 19.05 2.625 1.375-1.788 1.844-5.193 1.681-8.568zm-91.303-10.546c-1.133-.808-8.796-10.779-9.846-10.365-13.867 5.468-26.833 14.925-38.42 23.869 11.047 23.705 15.507 52.747 16.295 80.739 12.655 5.919 23.771 14.452 40.943 15.343-1.987-14.06-3.801-26.604-4.929-39.841-4.315-1.819-10.505.082-14.543-.564-.034-4.866 6.167-2.131 6.683-5.404.39-2.475-3.412-2.662-2.174-6.56 3.157 1.148 4.815 3.683 8.181 4.634 3.076-6.73-.043-18.638.401-24.263.084-1.056.527-5.851 2.893-5.009 2.093.744-.12 12.752.11 18.076.209 4.905-.593 9.651 1.394 12.73 16.594-2.259 33.457-3.719 51.411-4.212-3.95-1.694-8.642-3.298-13.787-6.198-2.789-1.572-11.58-4.844-12.385-7.493-1.284-4.221 3.369-6.47 4.165-10.088-8.377 4.568-10.011-4.379-11.992-10.718-1.796-5.741-2.818-10.03-3.258-13.341-7.216-3.44-14.931-6.924-21.142-11.335zm83.974-9.159c11.554-5.602 13.637 20.939 9.108 29.489.7 2.55 3.107 3.526 4.09 5.818-6.448 11.55-13.609 22.332-20.188 33.746 4.894-3.047 11.884-.545 17.643-2.825 2.105-.833 3.629-5.652 5.222-9.507 4.384-10.606 8.987-23.977 11.034-34.099.463-2.306 1.723-7.331 1.44-9.383-.504-3.675-5.49-6.4-8.026-8.673-4.673-4.197-7.615-7.891-12.489-11.816-1.976 2.917-6.217 4.878-7.834 7.25zm-110.397-102.46c-5.505 6.058-4.353 17.408-3.687 25.482 9.952-6.259 23.16.496 23.035 11.143 4.751-.126 1.775-5.934.916-9.675-2.809-12.22 4.731-25.496.341-36.671-8.523.646-15.525 4.127-20.605 9.721zm39.392-35.157c-12.463 3.532-28.437 12.588-33.558 23.785 3.966-.577 6.719-2.577 10.631-2.824 1.478-.096 3.415.62 5.115.197 3.386-.84 6.244-8.432 8.798-11.257 2.491-2.759 5.484-3.938 7.532-6.453 1.316-.635 3.262-.591 3.337-2.567-.571-.61-1.171-1.075-1.855-.881zm65.144 3.764c-12.936-7.299-35.098-13.231-48.858-6.371-11.104 5.537-26.113 14.697-31.23 26.304 4.78 11.201-1.416 21.465-1.811 32.838-.21 6.051 2.849 11.333 3.083 17.921-1.636 2.699-6.633 3.031-10.093 2.846-1.164-5.828-3.203-12.377-9.204-13.035-8.491-.929-14.699 6.099-15.085 13.442-.457 8.637 6.633 22.95 16.682 21.957 3.882-.384 4.835-4.275 9.065-4.235 2.292 4.573-3.536 6.01-4.136 9.281-.156.845.484 4.148.856 5.696 1.825 7.542 5.894 17.301 9.899 23.043 5.083 7.282 15.069 8.38 25.813 9.094 1.918-4.134 8.987-3.794 13.593-2.713-5.52-2.186-10.652-7.486-14.905-12.177-4.885-5.383-9.833-11.157-10.083-18.192 9.231 12.808 16.858 23.993 33.646 29.627 12.702 4.259 27.537-1.953 37.297-8.807 4.05-2.848 6.467-7.368 9.346-11.506 10.771-15.494 15.798-37.609 14.693-59.044-.455-8.84-.435-17.65-3.402-23.597-1.907-5.152-3.433-7.741-7.287-13.769-5.228-6.746-10.449-14.411-17.879-18.603zm23.836 199.017c10.109-5.025 28.997-13.526 35.334.018 2.339 4.993 5.083 13.433 6.294 18.587 1.711 7.271-1.855 22.554-9.329 24.994-6.601 2.154-14.304 2.023-22.255.426-.936-.779-1.979-2.136-2.707-3.551-5.678-.221-10.994.304-15.479 2.638.425 4.199-2.415 4.873-5.078 5.738-1.973 7.826 3.949 18.046 2.532 25.182-1.012 5.084-7.267 5.87-11.864 6.822-.15 2.825.201 5.183.515 7.573-1.051 3.874-5.766 6.079-10.234 6.619-14.699 1.767-37.017 2.561-51.155-2.523-3.945-9.677-7.053-21.447-10.339-32.497-13.789 1.473-24.942-5.95-35.455-10.813-3.64-1.687-8.676-2.617-10.036-5.514-1.318-2.806-.779-8.182-1.106-13.26-.832-12.972-1.545-25.483-4.971-38.764-1.538-5.96-4.218-11.219-6.088-16.962-1.729-5.322-4.749-11.899-5.537-17.207-1.167-7.866 6.24-8.304 10.976-11.712 7.322-5.272 13.069-8.187 20.999-12.944 2.348-1.409 9.431-4.975 10.236-6.618 1.602-3.256-2.749-7.847-3.912-10.4-1.84-4.036-2.799-7.465-3.063-11.447-6.652-1.052-11.694-5.01-14.74-9.474-5.038-7.387-8.533-21.055-4.173-31.451.342-.819 2.047-2.429 2.298-3.686.496-2.477-.934-5.769-1.022-8.403-.458-13.513 2.286-25.155 11.382-29.23 3.693-14.711 16.911-19.602 29.363-26.914 4.655-2.732 9.786-4.478 15.086-6.428 19.01-6.997 48.177-5.679 63.955 6.253 6.69 5.06 17.383 15.744 21.208 23.479 10.103 20.421 9.385 54.55 2.319 79.391-.95 3.335-2.327 8.238-4.251 12.244-1.341 2.798-5.51 8.395-5.004 10.865.521 2.554 9.505 9.375 11.431 11.233 3.469 3.346 10.059 7.787 10.593 12.01.574 4.493-1.98 10.641-3.274 14.977-4.325 14.471-8.545 27.848-13.449 40.749" fill="#231f20"/><path d="m194.234 231.212c0 1.265-1.027 2.291-2.293 2.291-1.265 0-2.291-1.026-2.291-2.291s1.026-2.293 2.291-2.293c1.266 0 2.293 1.028 2.293 2.293" fill="#1d1919"/><path d="m196.525 241.837c0 1.265-1.026 2.291-2.293 2.291-1.265 0-2.291-1.026-2.291-2.291 0-1.266 1.026-2.293 2.291-2.293 1.267 0 2.293 1.027 2.293 2.293" fill="#1d1919"/><path d="m182.994 104.616c1.83 3.364 2.732 5.5 4.148 9.863.789 2.434 1.2 4.66.802 7.991-.98 1.886-1.663 2.974-3.098 3.851-2.615 1.598-7.911 1.376-11.928 1.806-2.181-.471-3.821-.052-8.132-2.121-7.225-2.379-7.573-2.242-10.593-3.226-6.328-2.064-6.927-2.024-10.755-3.074 4.996-.04 12.123-.332 16.38-.566 5.486-.301 12.946-1.915 17.303-3.332 2.725-.887 0 0 3.575-2.177l1.944-2.828z" fill="#231f20"/><path d="m200.495 105.853c.118 6.747.412 8.998 1.06 13.082l3.359 5.126 1.414 3.182c5.101-1.247 7.955-4.243 7.955-4.243 6.599-3.969 7.646-5.336 9.016-7.424 2.232-2.659 3.629-5.181 5.657-8.486-.182.212.961.357-6.718 4.243-5.879 2.094-11.528 2.357-13.081 1.768-1.343.226-2.959-.64-4.773-2.298-1.49-.464-2.705-3.635-3.889-4.95z" fill="#231f20"/><path d="m144.912 79.425s-1.164-2.996-1.417.41c-.153 2.06-.076 11.606-.053 15.61-2.579 4.68-3.657 7.419-5.321 10.27l.502 1.729c1.889-2.913 4.765-8.032 5.964-10.474l.4-2.98.177-6.98z"/><path d="m125.276 85.347-3.358-13.347-.266-17.501 1.149-14.495 1.415-1.68h2.033l1.414 4.597 1.326 9.545 3.8 8.221 5.127 11.048-4.42 6.099-7.778 8.043" fill="#f2c5c1"/><path d="m136.502 71.735c2.36 1.543 2.953 1.774 4.065.177.054-1.028-.294-1.856-.707-2.652l-2.209-2.917c-1.3-1.477-3.363-5.427-4.42-8.131-1.261-3.148-2.612-6.164-3.27-9.281-1.5-6.271-.179-9.619-3.359-12.374-.858-.624-1.854-.904-3.182-.354-1.186 1.536-2.094 1-2.475 5.745-1.334 5.341-.742 9.552-1.237 14.054-.083 4.995-.963 2.498 0 17.324 1.485 12.04 1.681 9.343 2.74 12.64.539.453 1.789 1.696 2.563 1.679.456-.562 1.249-.448 1.061-2.298-2.16-5.565-2.195-10.606-2.563-11.844l-.442-6.894c-.453-4.794-.349-8.476-.354-12.375.218-2.568-.144-3.467.53-8.131.379-4.543-.031-6.159 1.68-7.072.604.345 1.335 1.106 1.679 4.597.693 7.019 1.822 9.788 2.121 11.932.906 4.718 2.946 8.848 5.127 12.286.82 1.425 1.606 2.917 2.652 3.889z" fill="#231f20"/><path d="m180.88 181.71 7.288-4.067 5.593-3.644c2.534-.583 3.802-.406 5.254-.339l2.966 1.017 6.695 5.593 2.627.254.508-5.678 4.322-7.457-6.779-.678-8.22.847-9.237-.085c-7.817.577-15.75.997-24.237.678-2.602-.004-6.019.318-9.746.763l-1.61 1.441 2.204 2.796c1.186 3.007 2.372 4.871 3.559 7.034l1.949 5.085 4.915 1.779c4.698-1.414 8.414-3.343 11.949-5.339z" fill="#231f20"/><g fill="#e7e7e7"><path d="m165.711 170.355 1.864-.594h2.712l1.61.339c.736 1.357.831 2.368.769 4.084-.146 1.342-.214 1.565-.939 1.907l-2.457.026-2.712-2.457-1.695-2.627z"/><path d="m174.185 169.761c-1.22.079-.262 2.337-.339 3.56.239 1.792.621 2.152 1.017 2.373l2.458-.141 2.796-.707c.586-.463.112-2.415.269-3.594-.486-1.158-.435-1.455-.608-1.829-5.156.376-3.979.245-5.593.338z"/><path d="m181.417 169.565.098 2.226c.061.861.363 1.714.565 2.008.796-.141 1.156.171 2.274.03 1.861-.282 2.593-.565 3.729-.847.354-.513.259-2.173-.006-3.704l-3.807.06z"/><path d="m189.552 169.281c.216.845-.146 2.128.441 3.13l1.672.03c1.477-.317 1.957-1.047 3.576-1.348l1.034-.035c.014-.798.191-1.028.036-1.982l-4.216.035z"/><path d="m197.49 169.168c-.26.98-.058 1.145.002 1.965 1.99-.329 2.915.292 3.334.435 1.714.161 1.356.294 1.798.592l.785-.82.116-2.369-2.137-.057c-.943.037-.768-.075-3.899.254z"/></g><path d="m193.796 160.307c1.11.079 1.331 1.592 1.435 3.295l.383 3.295-1.531 2.265-11.381.824-19.415-.618-5.069-3.295c-2.236-2.988-3.933-4.318-7.843-12.458-2.915-4.676-4.095-8.492-5.547-11.738-1.351-4.181-1.873-7.172-2.487-10.296 1.103-1.483 2.903 6.008 4.686 9.164 2.637 5.205 4.215 7.199 5.452 8.854 3.067 3.625 3.822 4.243 5.069 5.663 3.659 3.816 4.4 4.325 4.4 4.325 1.343.65.812.324 13.868.72 3.534.147 1.71.615 17.98 0z" fill="#231f20"/><path d="m200.335 160.402c-.809 1.067-.935 1.721-1.017 2.348-.388 3.589-.057 3.271 0 4.445l1.109 1.342h3.329c6.181-2.361 10.302-4.236 14.516-6.374 2.515-2.282 2.7-2.7 3.883-3.774.936-1.581 1.267-2.707 2.589-10.147.424-2.503 1.021-3.743 1.849-15.683l-1.294-.252c-.771 7.658-.963 8.069-2.312 13.419-.598 1.778-.802 2.407-2.311 6.373-3.154 3.042-6.819 4.009-9.154 4.781-5.492 1.71-7.067 2.099-11.187 3.522z" fill="#231f20"/><path d="m148.963 163.952c.204.784-.95 1.528 4.123 3.746.894.391 2.265 1.55 3.61 3.318.685.913 1.935 3.363 3.122 6.139 1.578 4.521 1.43 5.03 2.116 7.338l2.597 2.789c5.345.222 5.595-.594 7.92-1.491l.887-2.262c-1.95-6.42-3.9-8.171-5.85-11.306-2.453-2.971-4.905-4.225-7.357-5.653-1.728-.896-3.452-1.792-6.648-2.168z" fill="#231f20"/><path d="m158.5 167.992c1.279.775 2.32 1.103 3.325 1.717 1.426.836 3.022 2.34 3.637 3.494.849 1.369 1.665 2.455 1.975 3.188.75 1.37 1.465 2.737 2.078 3.617.389.91.298 1.313.935 2.514-1.336.57-1.564 1.091-2.286 1.594-1.827.255-3.241-.115-3.273-.675-.443-2.405-.941-3.668-1.507-5.456-.53-1.494-1.002-2.902-3.013-6.621-1.732-2.313-3.407-3.145-4.52-4.291z" fill="#f0f0f0"/><path d="m204.861 169.212-.17 1.644-.283 1.645 1.531 1.021 2.552-.057.113-4.083z" fill="#e7e7e7"/><path d="m206.404 175.912 4.396 3.937 1.967-1.927c.163-1.473.403-2.945.859-4.417.351-1.082 1.041-2.91 1.523-3.829 1.257-2.772 1.172-2.712 2.028-4.073 0 0 1.51-2.386 2.274-3.65-1.334-.106-2.91.163-3.679.579-2.215.934-4.231 2.904-6.304 4.656-2.97 4.325-2.797 4.071-3.422 5.982z" fill="#231f20"/><path d="m207.758 174.102 1.617 1.928 1.277 1.129 1.044-.568c.196-1.403.207-.22.67-3.252.518-1.803.853-3.444 1.763-5.594.977-2.257 1.52-2.788 2.243-4.036-.945.334-2.096.732-4.166 3.116l-1.603 2.053c-.933 1.03-1.709 2.313-2.403 3.47z" fill="#f0f0f0"/></svg>